# xmcd CD database file
#
# Track frame offsets:
#	150
#	20668
#	37454
#	59567
#	80030
#	100481
#	118019
#	135749
#	152666
#	176916
#	195663
#	216404
#	238942
#	258694
#
# Disc length: 3699 seconds
#
# Revision: 3
# Processed by: cddbd v1.5.1PL0 Copyright (c) Steve Scherf et al.
# Submitted via: CDex 1.50beta8
#
DISCID=e20e710e
DTITLE=BoA - LISTEN TO MY HEART
DYEAR=2002
DGENRE=Pop
TTITLE0=ＬＩＳＴＥＮ　ＴＯ　ＭＹ　ＨＥＡＲＴ
TTITLE1=ＰＯＷＥＲ
TTITLE2=Ｅｖｅｒｙ　Ｈｅａｒｔ−ミンナノキモチ−
TTITLE3=Ｄｏｎ’ｔ　ｓｔａｒｔ　ｎｏｗ
TTITLE4=気持ちはつたわる
TTITLE5=Ｓｈａｒｅ　ｙｏｕｒ　ｈｅａｒｔ　（ｗｉｔｈ　ｍｅ）
TTITLE6=Ｄｒｅａｍｓ　ｃｏｍｅ　ｔｒｕｅ
TTITLE7=Ａｍａｚｉｎｇ　Ｋｉｓｓ
TTITLE8=ｈａｐｐｉｎｅｓｓ
TTITLE9=ＩＤ　；　Ｐｅａｃｅ　Ｂ
TTITLE10=Ｎｏｂｏｄｙ　Ｂｕｔ　Ｙｏｕ
TTITLE11=Ｎｏｔｈｉｎｇ’ｓ　ｇｏｎｎａ　ｃｈａｎｇｅ
TTITLE12=ＬＩＳＴＥＮ　ＴＯ　ＭＹ　ＨＥＡＲＴ（Ｈｅｘ　Ｈｅｃｔｏｒ　Ｍａｉｎ　Ｍｉｘ：　Ｅｎｇｌｉｓｈ　ｖｅｒｓｉｏｎ）
TTITLE13=ｔｈｅ　ｍｅａｎｉｎｇ　ｏｆ　ｐｅａｃｅ
EXTD=YEAR: 02-03-13
EXTT0=
EXTT1=
EXTT2=
EXTT3=
EXTT4=
EXTT5=
EXTT6=
EXTT7=
EXTT8=
EXTT9=
EXTT10=
EXTT11=
EXTT12=
EXTT13=
PLAYORDER=
